# xmcd
# 
# Track frame offsets:
#     150
#     11492
#     23619
#     36215
#     50447
#     59402
#     72001
#     88598
#     101467
#     116279
#     127202
#     146039
#     159588
#     174455
#     188392
#     198526
#     210770
# 
# Disc length: 3012
# 
# Revision: 0
# Processed by: cddbd v1.5.2PL0 Copyright (c) Steve Scherf et al.
# Submitted via: fre:ac v1.0.27
# 
DISCID=dd0bc211
DTITLE=The Fabulous Thunderbirds - Butt Rockin'
DYEAR=1981
DGENRE=Blues
TTITLE0=I Believe I'm In Love
TTITLE1=One's Too Many
TTITLE2=Give Me All Your Lovin'
TTITLE3=Roll Roll Roll
TTITLE4=Cherry Pink And Apple Blossom Whote
TTITLE5=I Hear You Knocking
TTITLE6=Tip On In
TTITLE7=I'm Sorry
TTITLE8=Mathilda
TTITLE9=Tell Me Why
TTITLE10=In Orbit
TTITLE11=Things I Forgot To Do
TTITLE12=Found A New Love
TTITLE13=I Got Eyes
TTITLE14=Someday You'll Want Me
TTITLE15=I Hear You Knockin'- live
TTITLE16=Mathilda- live
EXTD=2113 Reissue\n6 Bonus Tracks
EXTT0=
EXTT1=
EXTT2=
EXTT3=
EXTT4=
EXTT5=
EXTT6=
EXTT7=
EXTT8=
EXTT9=
EXTT10=
EXTT11=
EXTT12=
EXTT13=
EXTT14=
EXTT15=
EXTT16=
PLAYORDER=
